<?xml version="1.0" encoding="UTF-8" standalone="no"?><svg xmlns="http://www.w3.org/2000/svg" xmlns:xlink="http://www.w3.org/1999/xlink" contentScriptType="application/ecmascript" contentStyleType="text/css" height="359.375px" preserveAspectRatio="none" style="width:1309px;height:359px;" version="1.1" viewBox="0 0 1309 359" width="1309.375px" zoomAndPan="magnify"><defs><filter height="300%" id="f1ujiif8hxqb10" width="300%" x="-1" y="-1"><feGaussianBlur result="blurOut" stdDeviation="6.25"/><feColorMatrix in="blurOut" result="blurOut2" type="matrix" values="0 0 0 0 0 0 0 0 0 0 0 0 0 0 0 0 0 0 .4 0"/><feOffset dx="12.5" dy="12.5" in="blurOut2" result="blurOut3"/><feBlend in="SourceGraphic" in2="blurOut3" mode="normal"/></filter></defs><g><!--entity customer--><ellipse cx="114.0625" cy="68.75" fill="#FFFFFF" filter="url(#f1ujiif8hxqb10)" rx="25" ry="25" style="stroke: #4169E1; stroke-width: 6.25;"/><path d="M114.0625,93.75 L114.0625,178.125 M73.4375,118.75 L154.6875,118.75 M114.0625,178.125 L73.4375,225 M114.0625,178.125 L154.6875,225 " fill="none" filter="url(#f1ujiif8hxqb10)" style="stroke: #4169E1; stroke-width: 6.25;"/><text fill="#000000" font-family="sans-serif" font-size="43.75" lengthAdjust="spacingAndGlyphs" textLength="190.625" x="18.75" y="292.2913">Customer</text><ellipse cx="590.9962" cy="73.2866" fill="#FFFFFF" filter="url(#f1ujiif8hxqb10)" rx="170.6837" ry="48.2866" style="stroke: #4169E1; stroke-width: 4.6875;"/><text fill="#000000" font-family="sans-serif" font-size="43.75" lengthAdjust="spacingAndGlyphs" textLength="228.125" x="476.9337" y="89.8637">Place order</text><ellipse cx="590.5711" cy="279.5366" fill="#FFFFFF" filter="url(#f1ujiif8hxqb10)" rx="190.5711" ry="48.2866" style="stroke: #4169E1; stroke-width: 4.6875;"/><text fill="#000000" font-family="sans-serif" font-size="43.75" lengthAdjust="spacingAndGlyphs" textLength="256.25" x="462.4461" y="296.1137">Cancel order</text><ellipse cx="1189.8398" cy="173.2866" fill="#FFFFFF" filter="url(#f1ujiif8hxqb10)" rx="86.7148" ry="48.2866" style="stroke: #4169E1; stroke-width: 4.6875;"/><text fill="#000000" font-family="sans-serif" font-size="43.75" lengthAdjust="spacingAndGlyphs" textLength="109.375" x="1135.1523" y="189.8637">Login</text><!--link customer to uc1--><path d="M210.1063,151.1731 C278.9056,137.0019 373.725,117.4713 451.1063,101.5319 " fill="none" id="customer-uc1" style="stroke: #000000; stroke-width: 3.125;"/><!--link customer to uc2--><path d="M210.1063,191.9216 C278.1025,207.7347 371.5125,229.4581 448.3875,247.3362 " fill="none" id="customer-uc2" style="stroke: #000000; stroke-width: 3.125;"/><!--link uc1 to uc3--><path d="M738.6156,97.9003 C848.0219,116.3753 995.0844,141.2091 1090.1969,157.27 " fill="none" id="uc1-uc3" style="stroke: #000000; stroke-width: 3.125; stroke-dasharray: 7.0,7.0;"/><polygon fill="#000000" points="1106.1625,159.9666,1080.5126,142.9564,1090.7558,157.3639,1076.3483,167.6071,1106.1625,159.9666" style="stroke: #000000; stroke-width: 3.125;"/><text fill="#000000" font-family="sans-serif" font-size="40.625" lengthAdjust="spacingAndGlyphs" textLength="128.125" x="878.125" y="112.4847">include</text><!--link uc2 to uc3--><path d="M768.5938,261.5972 C843.1938,252.4425 930.9594,239.7613 1009.375,223.4375 C1038.3219,217.4112 1069.4875,209.1825 1097.4594,201.1406 " fill="none" id="uc2-uc3" style="stroke: #000000; stroke-width: 3.125; stroke-dasharray: 7.0,7.0;"/><polygon fill="#000000" points="1112.6344,196.7072,1082.1331,192.5915,1097.6357,201.0868,1089.1405,216.5894,1112.6344,196.7072" style="stroke: #000000; stroke-width: 3.125;"/><text fill="#000000" font-family="sans-serif" font-size="40.625" lengthAdjust="spacingAndGlyphs" textLength="128.125" x="878.125" y="212.4847">include</text></g></svg>