<?xml version="1.0" encoding="UTF-8" standalone="no"?><svg xmlns="http://www.w3.org/2000/svg" xmlns:xlink="http://www.w3.org/1999/xlink" contentScriptType="application/ecmascript" contentStyleType="text/css" height="1281.25px" preserveAspectRatio="none" style="width:1828px;height:1281px;" version="1.1" viewBox="0 0 1828 1281" width="1828.125px" zoomAndPan="magnify"><defs><filter height="300%" id="faiblc7zrx0gn" width="300%" x="-1" y="-1"><feGaussianBlur result="blurOut" stdDeviation="6.25"/><feColorMatrix in="blurOut" result="blurOut2" type="matrix" values="0 0 0 0 0 0 0 0 0 0 0 0 0 0 0 0 0 0 .4 0"/><feOffset dx="12.5" dy="12.5" in="blurOut2" result="blurOut3"/><feBlend in="SourceGraphic" in2="blurOut3" mode="normal"/></filter></defs><g><!--class person--><rect fill="#FFFFFF" filter="url(#faiblc7zrx0gn)" height="233.1299" id="person" style="stroke: #4169E1; stroke-width: 4.6875;" width="396.875" x="18.75" y="471.875"/><text fill="#000000" font-family="sans-serif" font-size="37.5" lengthAdjust="spacingAndGlyphs" textLength="121.875" x="156.25" y="526.4282">person</text><line style="stroke: #4169E1; stroke-width: 4.6875;" x1="21.875" x2="412.5" y1="550.293" y2="550.293"/><path d="M56.3802,574.5199 C52.4271,574.5199 49.2188,577.7282 49.2188,581.6813 C49.2188,582.1396 49.3133,582.5321 49.3992,582.936 L40.625,591.7102 L40.625,597.4394 L49.2188,597.4394 L49.2188,591.7102 L54.9479,591.7102 L54.9479,588.8456 L55.1284,588.6652 C55.5294,588.7511 55.9219,588.8456 56.3831,588.8456 C60.3362,588.8456 63.5445,585.6373 63.5445,581.6842 C63.5445,577.7311 60.3362,574.5227 56.3831,574.5227 M57.8154,577.3873 C59.3909,577.3873 60.6799,578.6764 60.6799,580.2519 C60.6799,581.8274 59.3909,583.1165 57.8154,583.1165 C56.2398,583.1165 54.9508,581.8274 54.9508,580.2519 C54.9508,578.6764 56.2398,577.3873 57.8154,577.3873 " fill="#FFFF00" style="stroke: ; stroke-width: 0.0; stroke-dasharray: ;"/><text fill="#000000" font-family="sans-serif" font-size="34.375" lengthAdjust="spacingAndGlyphs" text-decoration="underline" textLength="25" x="76.0417" y="598.4772">id</text><text fill="#000000" font-family="sans-serif" font-size="34.375" lengthAdjust="spacingAndGlyphs" textLength="53.125" x="110.4167" y="598.4772">: int</text><text fill="#000000" font-family="sans-serif" font-size="34.375" lengthAdjust="spacingAndGlyphs" textLength="306.25" x="37.5" y="641.7145">first_name : varchar</text><text fill="#000000" font-family="sans-serif" font-size="34.375" lengthAdjust="spacingAndGlyphs" textLength="359.375" x="37.5" y="684.9518">second_name : varchar</text><!--class login--><rect fill="#FFFFFF" filter="url(#faiblc7zrx0gn)" height="276.3672" id="login" style="stroke: #4169E1; stroke-width: 4.6875;" width="340.625" x="693.75" y="451.5625"/><text fill="#000000" font-family="sans-serif" font-size="37.5" lengthAdjust="spacingAndGlyphs" textLength="84.375" x="821.875" y="506.1157">login</text><line style="stroke: #4169E1; stroke-width: 4.6875;" x1="696.875" x2="1031.25" y1="529.9805" y2="529.9805"/><path d="M731.3802,554.2074 C727.4271,554.2074 724.2188,557.4157 724.2188,561.3688 C724.2188,561.8271 724.3133,562.2196 724.3992,562.6235 L715.625,571.3977 L715.625,577.1269 L724.2188,577.1269 L724.2188,571.3977 L729.9479,571.3977 L729.9479,568.5331 L730.1284,568.3527 C730.5294,568.4386 730.9219,568.5331 731.3831,568.5331 C735.3362,568.5331 738.5445,565.3248 738.5445,561.3717 C738.5445,557.4186 735.3362,554.2102 731.3831,554.2102 M732.8154,557.0748 C734.3909,557.0748 735.6799,558.3639 735.6799,559.9394 C735.6799,561.5149 734.3909,562.804 732.8154,562.804 C731.2398,562.804 729.9508,561.5149 729.9508,559.9394 C729.9508,558.3639 731.2398,557.0748 732.8154,557.0748 " fill="#FFFF00" style="stroke: ; stroke-width: 0.0; stroke-dasharray: ;"/><text fill="#000000" font-family="sans-serif" font-size="34.375" lengthAdjust="spacingAndGlyphs" text-decoration="underline" textLength="25" x="751.0417" y="578.1647">id</text><text fill="#000000" font-family="sans-serif" font-size="34.375" lengthAdjust="spacingAndGlyphs" textLength="53.125" x="785.4167" y="578.1647">: int</text><path d="M731.3802,597.4447 C727.4271,597.4447 724.2188,600.653 724.2188,604.6061 C724.2188,605.0645 724.3133,605.4569 724.3992,605.8608 L715.625,614.635 L715.625,620.3642 L724.2188,620.3642 L724.2188,614.635 L729.9479,614.635 L729.9479,611.7704 L730.1284,611.59 C730.5294,611.6759 730.9219,611.7704 731.3831,611.7704 C735.3362,611.7704 738.5445,608.5621 738.5445,604.609 C738.5445,600.6559 735.3362,597.4475 731.3831,597.4475 M732.8154,600.3121 C734.3909,600.3121 735.6799,601.6012 735.6799,603.1767 C735.6799,604.7522 734.3909,606.0413 732.8154,606.0413 C731.2398,606.0413 729.9508,604.7522 729.9508,603.1767 C729.9508,601.6012 731.2398,600.3121 732.8154,600.3121 " fill="#B22222" style="stroke: ; stroke-width: 0.0; stroke-dasharray: ;"/><text fill="#000000" font-family="sans-serif" font-size="34.375" lengthAdjust="spacingAndGlyphs" textLength="150" x="751.0417" y="621.402">person_id</text><text fill="#000000" font-family="sans-serif" font-size="34.375" lengthAdjust="spacingAndGlyphs" textLength="53.125" x="910.4167" y="621.402">: int</text><text fill="#000000" font-family="sans-serif" font-size="34.375" lengthAdjust="spacingAndGlyphs" textLength="296.875" x="712.5" y="664.6393">username : varchar</text><text fill="#000000" font-family="sans-serif" font-size="34.375" lengthAdjust="spacingAndGlyphs" textLength="303.125" x="712.5" y="707.8766">password : varchar</text><!--class project--><rect fill="#FFFFFF" filter="url(#faiblc7zrx0gn)" height="449.3164" id="project" style="stroke: #4169E1; stroke-width: 4.6875;" width="482.2917" x="1312.5" y="667.1875"/><text fill="#000000" font-family="sans-serif" font-size="37.5" lengthAdjust="spacingAndGlyphs" textLength="115.625" x="1495.8333" y="721.7407">project</text><line style="stroke: #4169E1; stroke-width: 4.6875;" x1="1315.625" x2="1791.6667" y1="745.6055" y2="745.6055"/><path d="M1350.1302,769.8324 C1346.1771,769.8324 1342.9688,773.0407 1342.9688,776.9938 C1342.9688,777.4521 1343.0633,777.8446 1343.1492,778.2485 L1334.375,787.0227 L1334.375,792.7519 L1342.9688,792.7519 L1342.9688,787.0227 L1348.6979,787.0227 L1348.6979,784.1581 L1348.8784,783.9777 C1349.2794,784.0636 1349.6719,784.1581 1350.1331,784.1581 C1354.0862,784.1581 1357.2945,780.9498 1357.2945,776.9967 C1357.2945,773.0436 1354.0862,769.8352 1350.1331,769.8352 M1351.5654,772.6998 C1353.1409,772.6998 1354.4299,773.9889 1354.4299,775.5644 C1354.4299,777.1399 1353.1409,778.429 1351.5654,778.429 C1349.9898,778.429 1348.7008,777.1399 1348.7008,775.5644 C1348.7008,773.9889 1349.9898,772.6998 1351.5654,772.6998 " fill="#FFFF00" style="stroke: ; stroke-width: 0.0; stroke-dasharray: ;"/><text fill="#000000" font-family="sans-serif" font-size="34.375" lengthAdjust="spacingAndGlyphs" text-decoration="underline" textLength="25" x="1369.7917" y="793.7897">id</text><text fill="#000000" font-family="sans-serif" font-size="34.375" lengthAdjust="spacingAndGlyphs" textLength="53.125" x="1404.1667" y="793.7897">: int</text><path d="M1350.1302,813.0697 C1346.1771,813.0697 1342.9688,816.278 1342.9688,820.2311 C1342.9688,820.6895 1343.0633,821.0819 1343.1492,821.4858 L1334.375,830.26 L1334.375,835.9892 L1342.9688,835.9892 L1342.9688,830.26 L1348.6979,830.26 L1348.6979,827.3954 L1348.8784,827.215 C1349.2794,827.3009 1349.6719,827.3954 1350.1331,827.3954 C1354.0862,827.3954 1357.2945,824.1871 1357.2945,820.234 C1357.2945,816.2809 1354.0862,813.0725 1350.1331,813.0725 M1351.5654,815.9371 C1353.1409,815.9371 1354.4299,817.2262 1354.4299,818.8017 C1354.4299,820.3772 1353.1409,821.6663 1351.5654,821.6663 C1349.9898,821.6663 1348.7008,820.3772 1348.7008,818.8017 C1348.7008,817.2262 1349.9898,815.9371 1351.5654,815.9371 " fill="#B22222" style="stroke: ; stroke-width: 0.0; stroke-dasharray: ;"/><text fill="#000000" font-family="sans-serif" font-size="34.375" lengthAdjust="spacingAndGlyphs" textLength="343.75" x="1369.7917" y="837.027">project_status_type_id</text><text fill="#000000" font-family="sans-serif" font-size="34.375" lengthAdjust="spacingAndGlyphs" textLength="53.125" x="1722.9167" y="837.027">: int</text><path d="M1350.1302,856.307 C1346.1771,856.307 1342.9688,859.5153 1342.9688,863.4684 C1342.9688,863.9268 1343.0633,864.3192 1343.1492,864.7231 L1334.375,873.4973 L1334.375,879.2265 L1342.9688,879.2265 L1342.9688,873.4973 L1348.6979,873.4973 L1348.6979,870.6327 L1348.8784,870.4523 C1349.2794,870.5382 1349.6719,870.6327 1350.1331,870.6327 C1354.0862,870.6327 1357.2945,867.4244 1357.2945,863.4713 C1357.2945,859.5182 1354.0862,856.3098 1350.1331,856.3098 M1351.5654,859.1744 C1353.1409,859.1744 1354.4299,860.4635 1354.4299,862.039 C1354.4299,863.6145 1353.1409,864.9036 1351.5654,864.9036 C1349.9898,864.9036 1348.7008,863.6145 1348.7008,862.039 C1348.7008,860.4635 1349.9898,859.1744 1351.5654,859.1744 " fill="#B22222" style="stroke: ; stroke-width: 0.0; stroke-dasharray: ;"/><text fill="#000000" font-family="sans-serif" font-size="34.375" lengthAdjust="spacingAndGlyphs" textLength="300" x="1369.7917" y="880.2643">manager_person_id</text><text fill="#000000" font-family="sans-serif" font-size="34.375" lengthAdjust="spacingAndGlyphs" textLength="53.125" x="1679.1667" y="880.2643">: int</text><text fill="#000000" font-family="sans-serif" font-size="34.375" lengthAdjust="spacingAndGlyphs" textLength="228.125" x="1331.25" y="923.5016">name : varchar</text><text fill="#000000" font-family="sans-serif" font-size="34.375" lengthAdjust="spacingAndGlyphs" textLength="312.5" x="1331.25" y="966.7389">description : varchar</text><text fill="#000000" font-family="sans-serif" font-size="34.375" lengthAdjust="spacingAndGlyphs" textLength="246.875" x="1331.25" y="1009.9762">start_date : date</text><text fill="#000000" font-family="sans-serif" font-size="34.375" lengthAdjust="spacingAndGlyphs" textLength="234.375" x="1331.25" y="1053.2135">end_date : date</text><text fill="#000000" font-family="sans-serif" font-size="34.375" lengthAdjust="spacingAndGlyphs" textLength="243.75" x="1331.25" y="1096.4508">budget : decimal</text><!--class project_status_type--><rect fill="#FFFFFF" filter="url(#faiblc7zrx0gn)" height="189.8926" id="project_status_type" style="stroke: #4169E1; stroke-width: 4.6875;" width="353.125" x="687.5" y="1059.375"/><text fill="#000000" font-family="sans-serif" font-size="37.5" lengthAdjust="spacingAndGlyphs" textLength="334.375" x="696.875" y="1113.9282">project_status_type</text><line style="stroke: #4169E1; stroke-width: 4.6875;" x1="690.625" x2="1037.5" y1="1137.793" y2="1137.793"/><path d="M725.1302,1162.0199 C721.1771,1162.0199 717.9688,1165.2282 717.9688,1169.1813 C717.9688,1169.6396 718.0633,1170.0321 718.1492,1170.436 L709.375,1179.2102 L709.375,1184.9394 L717.9688,1184.9394 L717.9688,1179.2102 L723.6979,1179.2102 L723.6979,1176.3456 L723.8784,1176.1652 C724.2794,1176.2511 724.6719,1176.3456 725.1331,1176.3456 C729.0862,1176.3456 732.2945,1173.1373 732.2945,1169.1842 C732.2945,1165.2311 729.0862,1162.0227 725.1331,1162.0227 M726.5654,1164.8873 C728.1409,1164.8873 729.4299,1166.1764 729.4299,1167.7519 C729.4299,1169.3274 728.1409,1170.6165 726.5654,1170.6165 C724.9898,1170.6165 723.7008,1169.3274 723.7008,1167.7519 C723.7008,1166.1764 724.9898,1164.8873 726.5654,1164.8873 " fill="#FFFF00" style="stroke: ; stroke-width: 0.0; stroke-dasharray: ;"/><text fill="#000000" font-family="sans-serif" font-size="34.375" lengthAdjust="spacingAndGlyphs" text-decoration="underline" textLength="25" x="744.7917" y="1185.9772">id</text><text fill="#000000" font-family="sans-serif" font-size="34.375" lengthAdjust="spacingAndGlyphs" textLength="53.125" x="779.1667" y="1185.9772">: int</text><text fill="#000000" font-family="sans-serif" font-size="34.375" lengthAdjust="spacingAndGlyphs" textLength="237.5" x="706.25" y="1229.2145">name :  varchar</text><!--class team_member_project_assn--><rect fill="#FFFFFF" filter="url(#faiblc7zrx0gn)" height="189.8926" id="team_member_project_assn" style="stroke: #4169E1; stroke-width: 4.6875;" width="521.875" x="603.125" y="150"/><text fill="#000000" font-family="sans-serif" font-size="37.5" lengthAdjust="spacingAndGlyphs" textLength="503.125" x="612.5" y="204.5532">team_member_project_assn</text><line style="stroke: #4169E1; stroke-width: 4.6875;" x1="606.25" x2="1121.875" y1="228.418" y2="228.418"/><path d="M640.7552,252.6449 C636.8021,252.6449 633.5938,255.8532 633.5938,259.8063 C633.5938,260.2646 633.6883,260.6571 633.7742,261.061 L625,269.8352 L625,275.5644 L633.5938,275.5644 L633.5938,269.8352 L639.3229,269.8352 L639.3229,266.9706 L639.5034,266.7902 C639.9044,266.8761 640.2969,266.9706 640.7581,266.9706 C644.7112,266.9706 647.9195,263.7623 647.9195,259.8092 C647.9195,255.8561 644.7112,252.6477 640.7581,252.6477 M642.1904,255.5123 C643.7659,255.5123 645.0549,256.8014 645.0549,258.3769 C645.0549,259.9524 643.7659,261.2415 642.1904,261.2415 C640.6148,261.2415 639.3258,259.9524 639.3258,258.3769 C639.3258,256.8014 640.6148,255.5123 642.1904,255.5123 " fill="#B22222" style="stroke: ; stroke-width: 0.0; stroke-dasharray: ;"/><text fill="#000000" font-family="sans-serif" font-size="34.375" lengthAdjust="spacingAndGlyphs" textLength="150" x="660.4167" y="276.6022">person_id</text><text fill="#000000" font-family="sans-serif" font-size="34.375" lengthAdjust="spacingAndGlyphs" textLength="53.125" x="819.7917" y="276.6022">: int</text><path d="M640.7552,295.8822 C636.8021,295.8822 633.5938,299.0905 633.5938,303.0436 C633.5938,303.502 633.6883,303.8944 633.7742,304.2983 L625,313.0725 L625,318.8017 L633.5938,318.8017 L633.5938,313.0725 L639.3229,313.0725 L639.3229,310.2079 L639.5034,310.0275 C639.9044,310.1134 640.2969,310.2079 640.7581,310.2079 C644.7112,310.2079 647.9195,306.9996 647.9195,303.0465 C647.9195,299.0934 644.7112,295.885 640.7581,295.885 M642.1904,298.7496 C643.7659,298.7496 645.0549,300.0387 645.0549,301.6142 C645.0549,303.1897 643.7659,304.4788 642.1904,304.4788 C640.6148,304.4788 639.3258,303.1897 639.3258,301.6142 C639.3258,300.0387 640.6148,298.7496 642.1904,298.7496 " fill="#B22222" style="stroke: ; stroke-width: 0.0; stroke-dasharray: ;"/><text fill="#000000" font-family="sans-serif" font-size="34.375" lengthAdjust="spacingAndGlyphs" textLength="146.875" x="660.4167" y="319.8395">project_id</text><text fill="#000000" font-family="sans-serif" font-size="34.375" lengthAdjust="spacingAndGlyphs" textLength="53.125" x="816.6667" y="319.8395">: int</text><ellipse cx="864.0625" cy="32.8125" fill="#000000" rx="6.25" ry="6.25" style="stroke: none; stroke-width: 3.125;"/><!--link person to login--><path d="M441.3125,589.0625 C514.9344,589.0625 596.3188,589.0625 667.6719,589.0625 " fill="none" id="person-login" style="stroke: #696969; stroke-width: 3.125;"/><line style="stroke: #696969; stroke-width: 3.125;" x1="659.0969" x2="693.4719" y1="589.0625" y2="589.0625"/><ellipse cx="659.0969" cy="589.0625" fill="none" rx="12.5" ry="12.5" style="stroke: #696969; stroke-width: 3.125;"/><line style="stroke: #696969; stroke-width: 3.125;" x1="680.9719" x2="680.9719" y1="576.5625" y2="601.5625"/><line style="stroke: #696969; stroke-width: 3.125;" x1="428.5031" x2="428.5031" y1="601.5625" y2="576.5625"/><line style="stroke: #696969; stroke-width: 3.125;" x1="437.8781" x2="437.8781" y1="601.5625" y2="576.5625"/><line style="stroke: #696969; stroke-width: 3.125;" x1="441.0031" x2="416.0031" y1="589.0625" y2="589.0625"/><!--link person to project--><path d="M439.35,714.1594 C491.625,739.4594 548.2188,763.2937 603.125,779.6875 C827.8031,846.7688 1093.7188,874.0563 1286.4625,885.0531 " fill="none" id="person-project" style="stroke: #696969; stroke-width: 3.125;"/><line style="stroke: #696969; stroke-width: 3.125;" x1="1287.0085" x2="1312.9865" y1="885.0846" y2="867.715"/><line style="stroke: #696969; stroke-width: 3.125;" x1="1287.0085" x2="1310.9572" y1="885.0846" y2="905.16"/><line style="stroke: #696969; stroke-width: 3.125;" x1="1287.0085" x2="1311.9719" y1="885.0846" y2="886.4375"/><ellipse cx="1268.286" cy="884.07" fill="none" rx="12.5" ry="12.5" style="stroke: #696969; stroke-width: 3.125;"/><line style="stroke: #696969; stroke-width: 3.125;" x1="446.4731" x2="415.6563" y1="717.6835" y2="702.4531"/><ellipse cx="446.4731" cy="717.6835" fill="none" rx="12.5" ry="12.5" style="stroke: #696969; stroke-width: 3.125;"/><line style="stroke: #696969; stroke-width: 3.125;" x1="421.324" x2="432.4007" y1="719.1976" y2="696.7853"/><!--link project_status_type to project--><path d="M1064.8,1078.7169 C1134.4469,1051.9431 1213.8563,1021.4141 1287.9813,992.9175 " fill="none" id="project_status_type-project" style="stroke: #696969; stroke-width: 3.125;"/><line style="stroke: #696969; stroke-width: 3.125;" x1="1288.5095" x2="1305.114" y1="992.7167" y2="966.2431"/><line style="stroke: #696969; stroke-width: 3.125;" x1="1288.5095" x2="1318.5735" y1="992.7167" y2="1001.2444"/><line style="stroke: #696969; stroke-width: 3.125;" x1="1288.5095" x2="1311.8438" y1="992.7167" y2="983.7438"/><ellipse cx="1271.0089" cy="999.4465" fill="none" rx="12.5" ry="12.5" style="stroke: #696969; stroke-width: 3.125;"/><line style="stroke: #696969; stroke-width: 3.125;" x1="1057.4086" x2="1048.4397" y1="1094.9519" y2="1071.6161"/><line style="stroke: #696969; stroke-width: 3.125;" x1="1066.1595" x2="1057.1906" y1="1091.5885" y2="1068.2527"/><line style="stroke: #696969; stroke-width: 3.125;" x1="1064.592" x2="1041.2563" y1="1078.7995" y2="1087.7684"/><!--link person to apoint11--><path d="M293.2309,449.6313 C359.2719,337.0875 466.9781,183.4594 603.125,95.3125 C692.8188,37.2438 831.6813,33.0937 856.9281,32.825 " fill="none" id="person-apoint11" style="stroke: #696969; stroke-width: 3.125;"/><line style="stroke: #696969; stroke-width: 3.125;" x1="293.0734" x2="296.8244" y1="449.9035" y2="480.9275"/><line style="stroke: #696969; stroke-width: 3.125;" x1="293.0734" x2="264.3406" y1="449.9035" y2="462.1912"/><line style="stroke: #696969; stroke-width: 3.125;" x1="293.0734" x2="280.5825" y1="449.9035" y2="471.5594"/><line style="stroke: #696969; stroke-width: 3.125;" x1="307.024" x2="285.3681" y1="450.7349" y2="438.2441"/><!--link apoint11 to project--><path d="M871.3344,32.6313 C897.425,31.7094 1040.5469,29.8562 1125,95.3125 C1302.0156,232.5062 1413.8063,464.6844 1478.05,643.1406 " fill="none" id="apoint11-project" style="stroke: #696969; stroke-width: 3.125;"/><line style="stroke: #696969; stroke-width: 3.125;" x1="1478.0933" x2="1504.0962" y1="643.2665" y2="660.5988"/><line style="stroke: #696969; stroke-width: 3.125;" x1="1478.0933" x2="1468.7351" y1="643.2665" y2="673.0824"/><line style="stroke: #696969; stroke-width: 3.125;" x1="1478.0933" x2="1486.4156" y1="643.2665" y2="666.8406"/><line style="stroke: #696969; stroke-width: 3.125;" x1="1487.7997" x2="1464.2256" y1="633.2118" y2="641.5342"/><!--link apoint11 to team_member_project_assn--><path d="M864.0625,39.2125 C864.0625,76.0938 864.0625,112.9719 864.0625,149.8531 " fill="none" id="apoint11-team_member_project_assn" style="stroke: #696969; stroke-width: 3.125; stroke-dasharray: 7.0,7.0;"/></g></svg>